<svg xmlns="http://www.w3.org/2000/svg" width="157" height="46" viewBox="0 0 157 46" fill="none"><path d="M152.762 24.4522C152.792 24.6022 152.884 24.6322 152.975 24.6922C153.707 25.2623 154.439 25.8323 155.201 26.4024C155.597 26.7024 155.994 27.0324 156.39 27.3324C156.421 27.3625 156.451 27.3925 156.482 27.3925C156.512 27.5125 156.421 27.5725 156.36 27.6025C155.902 27.9925 155.475 28.3525 155.018 28.7126C154.5 29.1626 153.981 29.5827 153.463 30.0327C153.372 30.1227 153.25 30.2127 153.128 30.2727C152.975 30.2127 152.853 30.0927 152.731 30.0027C151.237 28.8326 149.774 27.6625 148.279 26.4624C148.249 26.4324 148.188 26.4024 148.158 26.3724C148.066 26.2823 147.944 26.2823 147.822 26.2823C147.395 26.3124 146.968 26.3724 146.541 26.3724C145.383 26.3724 144.224 26.2223 143.096 25.8623C141.297 25.2623 139.772 24.2422 138.614 22.742C137.76 21.6319 137.181 20.4018 136.754 19.0817C136.54 18.3916 136.418 17.7015 136.327 16.9815C136.266 16.6514 136.266 16.3214 136.235 15.9614C136.205 15.3613 136.174 14.7913 136.174 14.1912C136.174 13.6211 136.174 13.0511 136.235 12.481C136.357 10.9209 136.723 9.42075 137.394 7.98061C138.217 6.24044 139.407 4.86031 141.084 3.84022C142.12 3.21016 143.248 2.79012 144.468 2.5801C145.322 2.43008 146.176 2.37008 147.06 2.40008C148.493 2.46008 149.896 2.76011 151.207 3.42018C152.884 4.26026 154.225 5.49037 155.171 7.08052C155.963 8.40065 156.451 9.81078 156.695 11.3109C156.817 12.061 156.878 12.8411 156.878 13.5911C156.878 14.1312 156.878 14.6712 156.878 15.2413C156.878 16.5914 156.695 17.9116 156.299 19.2017C155.78 20.9118 154.896 22.442 153.585 23.7021C153.402 23.8821 153.158 24.0621 152.975 24.2422C152.853 24.3622 152.823 24.3922 152.762 24.4522ZM141.846 14.6112C141.876 15.0913 141.815 15.7814 141.907 16.4414C141.968 17.1315 142.09 17.7915 142.242 18.4516C142.395 19.0817 142.639 19.6817 143.004 20.2218C143.523 21.0619 144.255 21.6619 145.261 21.9319C145.749 22.0819 146.267 22.112 146.785 22.0819C147.456 22.0519 148.097 21.8719 148.676 21.5119C149.286 21.1219 149.713 20.6118 150.078 20.0118C150.414 19.4417 150.627 18.8416 150.78 18.1816C151.024 17.2215 151.115 16.2614 151.146 15.2713C151.176 14.2212 151.176 13.1711 151.054 12.121C150.993 11.4909 150.902 10.8909 150.719 10.2908C150.505 9.51075 150.17 8.79069 149.652 8.16063C148.889 7.23054 147.883 6.75049 146.663 6.72049C146.328 6.72049 145.993 6.72049 145.627 6.78049C144.742 6.93051 143.98 7.32055 143.401 7.98061C142.913 8.55066 142.578 9.21073 142.334 9.90079C141.998 10.9809 141.846 12.061 141.815 13.2011C141.846 13.6511 141.846 14.0412 141.846 14.6112Z" fill="white"></path><path d="M68.5141 26.1023C68.5446 26.0123 68.5446 25.9523 68.5446 25.8923C69.0325 24.6022 69.5203 23.2821 70.0082 21.9919C70.4351 20.8518 70.8619 19.7117 71.2888 18.5716C71.7157 17.4315 72.1426 16.2914 72.5694 15.1213C72.9963 13.9812 73.4232 12.8411 73.8501 11.6709C74.3684 10.2608 74.8868 8.88068 75.4051 7.47055C75.9235 6.09042 76.4114 4.71029 76.9297 3.36016C76.9907 3.21014 77.0517 3.09013 77.0822 2.94012C77.1127 2.82011 77.2041 2.7601 77.3261 2.7601C77.3871 2.7601 77.4481 2.7601 77.509 2.7601C79.0336 2.7601 80.5582 2.7601 82.0523 2.7601C82.4486 2.7601 82.4182 2.7601 82.5706 3.09013C82.906 3.96022 83.2109 4.8303 83.5463 5.70038C84.1867 7.38054 84.7965 9.0307 85.4368 10.7109C85.8942 11.941 86.3515 13.1711 86.8089 14.4012C87.4492 16.0814 88.0591 17.7615 88.6994 19.4417C89.3092 21.0918 89.919 22.712 90.5289 24.3622C90.7118 24.8422 90.8948 25.3222 91.0472 25.7723C91.0777 25.8623 91.1082 25.9223 91.1082 26.0123C91.0472 26.0423 91.0167 26.0423 90.9862 26.0723C90.8948 26.0723 90.8033 26.0723 90.7118 26.0723C89.0043 26.0723 87.2968 26.0723 85.5893 26.0723C85.5588 26.0723 85.5588 26.0723 85.5283 26.0723C85.1014 26.0723 85.1624 26.0423 85.0709 25.7423C84.6745 24.5122 84.2781 23.2821 83.9122 22.0819C83.8817 22.0219 83.8513 21.9319 83.8513 21.8719C83.8208 21.7519 83.7293 21.6919 83.6073 21.6919C83.5158 21.6919 83.4244 21.6919 83.3634 21.6919C81.0156 21.6919 78.6677 21.6919 76.2894 21.6919C75.8015 21.6919 75.832 21.7219 75.7101 22.1419C75.3442 23.3421 74.9478 24.5422 74.5819 25.7423C74.4599 26.1323 74.4599 26.1023 74.0635 26.1023C72.3255 26.1023 70.5875 26.1023 68.819 26.1023C68.758 26.1023 68.6361 26.1023 68.5141 26.1023ZM79.7959 9.30072C79.7654 9.36073 79.7349 9.39073 79.7044 9.45074C79.6739 9.57075 79.613 9.69076 79.5825 9.81077C78.9421 11.821 78.3323 13.8012 77.692 15.8113C77.5395 16.2614 77.4176 16.6814 77.2651 17.1315C77.2346 17.2215 77.1736 17.3415 77.2346 17.4315C77.3261 17.5215 77.4481 17.4915 77.57 17.4915C79.0641 17.4915 80.5582 17.4915 82.0218 17.4915C82.3877 17.4915 82.4182 17.4315 82.2962 17.1015C81.9913 16.1414 81.6864 15.1813 81.3814 14.2512C81.107 13.3811 80.8326 12.511 80.5582 11.6709C80.3447 11.0109 80.1313 10.3208 79.9179 9.66076C79.9484 9.51074 79.9484 9.39073 79.7959 9.30072Z" fill="white"></path><path d="M102.116 2.79007C102.238 2.79007 102.36 2.79007 102.451 2.79007C104.25 2.79007 106.079 2.79007 107.878 2.79007C107.909 2.79007 107.97 2.79007 108 2.79007C108.275 2.79007 108.275 2.79007 108.336 3.0601C108.519 3.66015 108.671 4.23021 108.824 4.83026C109.312 6.57043 109.799 8.3406 110.287 10.0808C110.775 11.8209 111.263 13.5611 111.72 15.3013C112.117 16.6814 112.483 18.0615 112.879 19.4417C112.91 19.5317 112.91 19.6517 113.001 19.7117C113.092 19.7117 113.092 19.6817 113.123 19.6217C113.184 19.3816 113.275 19.1116 113.336 18.8716C113.977 16.5614 114.617 14.2812 115.257 11.9709C115.928 9.51071 116.629 7.05047 117.3 4.59024C117.453 4.08019 117.575 3.60015 117.727 3.0901C117.727 3.0601 117.758 3.00009 117.758 2.97009C117.788 2.85008 117.849 2.79007 118.002 2.79007C118.063 2.79007 118.124 2.79007 118.185 2.79007C120.045 2.79007 121.874 2.79007 123.734 2.79007C123.825 2.79007 123.917 2.79007 124.008 2.79007C124.069 2.88008 124.008 2.97009 123.978 3.0601C123.703 3.84017 123.429 4.62024 123.155 5.43032C122.545 7.23049 121.935 9.03066 121.295 10.8308C120.532 13.021 119.801 15.2413 119.038 17.4315C118.306 19.6217 117.544 21.8119 116.812 23.9721C116.599 24.5721 116.386 25.1722 116.203 25.7723C116.172 25.8323 116.172 25.8923 116.142 25.9523C116.111 26.0423 116.05 26.1023 115.959 26.1023C115.898 26.1023 115.806 26.1023 115.745 26.1023C113.946 26.1023 112.117 26.1023 110.318 26.1023C109.952 26.1023 109.952 26.1023 109.83 25.7423C109.19 23.8221 108.519 21.9019 107.878 19.9817C105.988 14.3712 104.067 8.76064 102.177 3.18011C102.146 3.0601 102.085 2.97009 102.116 2.79007Z" fill="white"></path><path d="M99.4323 14.4612C99.4323 18.1815 99.4323 21.9019 99.4323 25.6222C99.4323 25.7422 99.4323 25.8623 99.4323 25.9823C99.4323 26.0423 99.3714 26.1023 99.3104 26.1023C99.2494 26.1023 99.1579 26.1023 99.0969 26.1023C97.4809 26.1023 95.8344 26.1023 94.2183 26.1023H94.1878C93.8829 26.1023 93.8524 26.0723 93.8524 25.7723C93.8524 25.7122 93.8524 25.6522 93.8524 25.6222C93.8524 18.1815 93.8524 10.7108 93.8524 3.27012C93.8524 3.1501 93.8524 3.0601 93.8524 2.94008C93.8524 2.85008 93.9134 2.79007 94.0049 2.79007C94.0659 2.79007 94.1573 2.79007 94.2183 2.79007C95.8344 2.79007 97.4199 2.79007 99.0359 2.79007H99.0664C99.4323 2.79007 99.4323 2.79007 99.4323 3.1501C99.4323 5.97037 99.4323 8.79064 99.4323 11.6109C99.4323 12.571 99.4323 13.5311 99.4323 14.4612Z" fill="white"></path><path d="M132.302 14.4612C132.302 18.1815 132.302 21.8719 132.302 25.5922C132.302 25.7122 132.302 25.8323 132.302 25.9523C132.302 26.0423 132.241 26.1023 132.119 26.1023C132.058 26.1023 131.997 26.1023 131.936 26.1023C130.32 26.1023 128.735 26.1023 127.118 26.1023C126.753 26.1023 126.753 26.1023 126.722 25.7423C126.722 25.6822 126.722 25.6222 126.722 25.5622C126.722 18.1515 126.722 10.7708 126.722 3.36012C126.722 3.24011 126.722 3.1201 126.722 2.97009C126.722 2.85008 126.783 2.82007 126.905 2.79007C126.966 2.79007 127.027 2.79007 127.058 2.79007C128.674 2.79007 130.29 2.79007 131.906 2.79007C132.272 2.79007 132.272 2.79007 132.272 3.1501C132.272 3.69016 132.272 4.23021 132.272 4.80026C132.302 8.01057 132.302 11.2509 132.302 14.4612Z" fill="white"></path><path d="M136.479 39.5736C136.388 39.6636 136.327 39.7236 136.235 39.8136C135.809 40.2337 135.29 40.5337 134.711 40.6537C134.01 40.8037 133.339 40.7437 132.698 40.4737C131.601 40.0237 130.899 39.2136 130.534 38.1335C130.381 37.7134 130.32 37.2934 130.32 36.8734C130.29 36.2133 130.351 35.5832 130.594 34.9832C130.93 34.1431 131.479 33.453 132.272 32.973C133.491 32.2829 135.138 32.3729 136.235 33.363C136.296 33.423 136.388 33.483 136.449 33.543C136.54 33.513 136.54 33.453 136.54 33.423C136.54 33.333 136.54 33.243 136.571 33.183C136.662 32.853 136.906 32.643 137.242 32.5829C137.577 32.5229 137.882 32.6129 138.095 32.883C138.187 33.003 138.248 33.123 138.248 33.243C138.248 33.363 138.278 33.483 138.278 33.633C138.278 35.7332 138.278 37.8334 138.278 39.9636C138.278 40.3237 138.278 40.6537 138.187 41.0137C138.004 41.9738 137.455 42.6639 136.601 43.1139C136.174 43.354 135.687 43.474 135.199 43.534C134.985 43.564 134.741 43.594 134.528 43.594C133.918 43.624 133.308 43.504 132.729 43.384C132.515 43.324 132.302 43.294 132.089 43.204C131.845 43.1139 131.601 43.0239 131.448 42.8139C131.235 42.5739 131.204 42.3039 131.326 42.0038C131.448 41.7038 131.631 41.4938 131.967 41.4638C132.089 41.4638 132.241 41.4938 132.363 41.5238C132.546 41.5838 132.729 41.6438 132.912 41.7038C133.278 41.8238 133.644 41.9438 134.01 42.0038C134.497 42.0638 134.955 42.0038 135.412 41.8838C136.083 41.6738 136.479 41.2238 136.571 40.5037C136.601 40.2337 136.571 39.9636 136.571 39.7236C136.54 39.6636 136.54 39.6336 136.479 39.5736ZM136.632 36.5733C136.632 36.2433 136.571 35.8833 136.418 35.5232C135.93 34.3831 134.863 33.9031 133.674 34.1731C132.973 34.3531 132.515 34.8032 132.241 35.4032C131.906 36.1533 131.875 36.9034 132.18 37.6834C132.485 38.4635 133.064 38.9736 133.918 39.0936C134.863 39.2436 135.748 38.8835 136.266 38.0135C136.51 37.6234 136.632 37.1434 136.632 36.5733Z" fill="white"></path><path d="M94.4927 33.7531C94.5537 33.6631 94.6452 33.6031 94.7062 33.5131C95.0111 33.183 95.3465 32.943 95.7734 32.763C96.2612 32.553 96.7491 32.493 97.2674 32.553C97.4199 32.553 97.5418 32.583 97.6943 32.613C98.3346 32.763 98.792 33.123 99.0969 33.6931C99.2189 33.9331 99.3103 34.2031 99.3713 34.4731C99.4628 34.8932 99.5238 35.3132 99.5238 35.7333C99.5238 37.0234 99.5238 38.3135 99.5238 39.6036C99.5238 39.6636 99.5238 39.7236 99.5238 39.7836C99.4933 40.2037 99.1579 40.5337 98.731 40.5637C98.3041 40.5937 97.9382 40.3537 97.8163 39.9337C97.7858 39.8137 97.7858 39.6636 97.7858 39.5136C97.7858 38.3135 97.7858 37.1134 97.7858 35.9133C97.7858 35.6433 97.7858 35.3732 97.6943 35.1332C97.6638 35.0132 97.6333 34.8932 97.5723 34.7732C97.4199 34.4731 97.2064 34.2631 96.9015 34.1731C96.3527 34.0231 95.8343 34.0231 95.316 34.3231C94.7976 34.6232 94.5232 35.0732 94.4622 35.6433C94.4622 35.7633 94.4622 35.8833 94.4622 36.0333C94.4622 37.2034 94.4622 38.3735 94.4622 39.5436C94.4622 39.6636 94.4622 39.7836 94.4317 39.8737C94.3403 40.3237 93.9744 40.5637 93.517 40.5637C93.0901 40.5337 92.7547 40.2337 92.6937 39.8136C92.6937 39.7536 92.6937 39.6636 92.6937 39.6036C92.6937 36.6033 92.6937 33.6331 92.6937 30.6328C92.6937 30.5728 92.6937 30.5128 92.6937 30.4528C92.7242 29.9727 93.0901 29.6427 93.5475 29.6427C94.0048 29.6427 94.3708 29.9727 94.4317 30.4228C94.4317 30.5128 94.4317 30.6028 94.4317 30.6928C94.4317 31.5929 94.4317 32.493 94.4317 33.423C94.4317 33.5131 94.4317 33.6331 94.4317 33.7231C94.4622 33.7231 94.4622 33.7531 94.4927 33.7531Z" fill="white"></path><path d="M78.3323 37.2634C78.3323 37.3234 78.3323 37.3834 78.3628 37.4434C78.6372 38.2835 79.1861 38.8535 80.0703 39.0636C80.5582 39.1836 81.0461 39.1536 81.5339 39.0336C81.7474 38.9736 81.9303 38.9136 82.1132 38.7935C82.2352 38.7335 82.3572 38.6435 82.4791 38.5835C82.6316 38.4935 82.8146 38.4935 82.967 38.4635C83.4549 38.4635 83.8513 38.9736 83.6073 39.4836C83.5463 39.6036 83.4549 39.7236 83.3329 39.8136C83.15 39.9637 82.967 40.0837 82.7536 40.2037C82.1437 40.5037 81.4729 40.6837 80.7716 40.6837C80.2533 40.6837 79.7349 40.6537 79.2471 40.4737C77.8445 40.0237 76.9907 39.0936 76.6553 37.6534C76.4419 36.6633 76.5028 35.7033 76.9297 34.7732C77.4176 33.6931 78.2408 32.943 79.3995 32.613C80.6802 32.2529 81.8388 32.553 82.8146 33.423C83.4854 33.9931 83.9122 34.7132 84.0952 35.5532C84.1562 35.8233 84.1867 36.0633 84.1867 36.3333C84.1867 36.7233 83.9732 36.9934 83.6073 37.1134C83.4549 37.1434 83.3024 37.1734 83.1195 37.1734C81.6559 37.1734 80.1618 37.1734 78.6982 37.1734C78.5763 37.2334 78.4543 37.2034 78.3323 37.2634ZM78.3323 35.7333C78.4543 35.7933 78.5763 35.7933 78.6982 35.7933C79.6435 35.7933 80.5887 35.7933 81.5339 35.7933C81.7169 35.7933 81.9303 35.7933 82.1132 35.7933C82.1742 35.7933 82.2352 35.7633 82.2962 35.7333C82.3267 35.5832 82.3267 35.4632 82.2657 35.3432C82.2047 35.1332 82.1132 34.9532 81.9608 34.8032C81.7169 34.5031 81.3815 34.2931 81.0156 34.1731C80.6497 34.0531 80.2838 34.0531 79.9179 34.1131C79.0641 34.2631 78.4543 34.8632 78.3323 35.7333Z" fill="white"></path><path d="M144.346 37.2633C144.285 37.3533 144.316 37.4433 144.346 37.5033C144.621 38.3134 145.169 38.8534 146.023 39.0935C146.572 39.2435 147.121 39.1835 147.639 39.0335C147.822 38.9734 147.975 38.8834 148.158 38.7934C148.279 38.7334 148.432 38.6434 148.554 38.5834C148.767 38.4934 149.011 38.4934 149.225 38.5834C149.713 38.7934 149.743 39.2735 149.56 39.6035C149.469 39.7235 149.377 39.8435 149.255 39.9635C148.95 40.2336 148.584 40.3836 148.218 40.5036C147.212 40.8636 146.176 40.8636 145.169 40.5336C143.706 40.0235 142.852 38.9734 142.608 37.4433C142.486 36.6632 142.547 35.9132 142.822 35.1631C143.309 33.843 144.224 33.0029 145.596 32.6728C146.541 32.4328 147.456 32.6128 148.279 33.1229C149.286 33.753 149.896 34.653 150.139 35.7931C150.17 35.9732 150.2 36.1832 150.2 36.3632C150.231 36.8132 149.987 37.1433 149.53 37.2333C149.408 37.2633 149.255 37.2633 149.103 37.2633C147.639 37.2633 146.176 37.2633 144.712 37.2633C144.59 37.2333 144.468 37.2033 144.346 37.2633ZM148.279 35.7631C148.34 35.6431 148.34 35.5531 148.31 35.4631C148.249 35.2531 148.158 35.0431 148.036 34.8631C147.67 34.443 147.243 34.173 146.663 34.113C146.45 34.083 146.206 34.113 145.993 34.113C145.017 34.233 144.529 34.803 144.346 35.5831C144.316 35.7031 144.346 35.7331 144.468 35.7631C144.499 35.7631 144.56 35.7631 144.59 35.7631C145.749 35.7631 146.907 35.7631 148.066 35.7631C148.127 35.7931 148.188 35.7931 148.279 35.7631Z" fill="white"></path><path d="M113.245 40.7137C112.086 40.7437 111.111 40.3537 110.318 39.5436C109.677 38.8835 109.342 38.1035 109.22 37.2034C109.159 36.5433 109.19 35.9133 109.403 35.3132C109.891 33.8431 110.928 32.943 112.452 32.643C113.458 32.4329 114.465 32.5829 115.349 33.093C116.477 33.7531 117.117 34.7432 117.3 36.0033C117.392 36.7233 117.361 37.4734 117.087 38.1335C116.568 39.5136 115.562 40.3537 114.068 40.6537C113.977 40.6837 113.855 40.6837 113.763 40.7137C113.58 40.7137 113.397 40.7137 113.245 40.7137ZM115.593 36.6933C115.593 36.2733 115.562 36.0033 115.44 35.7032C115.074 34.7732 114.434 34.2031 113.397 34.1431C112.452 34.0831 111.629 34.5631 111.232 35.3732C110.806 36.2133 110.806 37.1134 111.263 37.9535C111.69 38.7935 112.422 39.2136 113.397 39.1536C114.343 39.1236 114.983 38.6135 115.379 37.7734C115.532 37.4134 115.593 37.0534 115.593 36.6933Z" fill="white"></path><path d="M129.649 36.6633C129.649 37.5034 129.436 38.3134 128.948 39.0335C128.308 39.9336 127.454 40.5036 126.356 40.6837C125.594 40.8037 124.832 40.8037 124.1 40.5036C122.636 39.9336 121.782 38.8835 121.539 37.3533C121.417 36.6633 121.447 35.9732 121.691 35.3131C122.179 33.843 123.216 32.9129 124.771 32.6129C125.929 32.3729 127.027 32.5829 128.003 33.303C128.978 34.023 129.527 34.9831 129.619 36.1832C129.619 36.3332 129.649 36.4833 129.649 36.6633ZM123.246 36.6333C123.246 37.0233 123.277 37.3833 123.46 37.7434C123.856 38.6135 124.527 39.0935 125.502 39.1535C126.539 39.2135 127.454 38.5535 127.789 37.5334C127.972 36.9333 127.972 36.3332 127.789 35.7332C127.545 34.9831 126.875 34.143 125.685 34.113C124.649 34.083 123.856 34.6531 123.49 35.4932C123.307 35.8532 123.216 36.2432 123.246 36.6333Z" fill="white"></path><path d="M102.847 33.7531C102.939 33.7831 102.969 33.723 103.03 33.663C103.183 33.513 103.335 33.363 103.488 33.213C104.189 32.6429 104.982 32.4329 105.896 32.5529C105.988 32.5829 106.11 32.5829 106.201 32.6129C106.903 32.763 107.36 33.153 107.665 33.7831C107.817 34.1131 107.909 34.4431 107.97 34.8032C108.031 35.1332 108.031 35.4932 108.061 35.8533C108.061 37.1134 108.061 38.3435 108.061 39.6036C108.061 39.6636 108.061 39.7236 108.061 39.7836C108.031 40.1737 107.787 40.4737 107.421 40.5637C107.055 40.6537 106.659 40.5037 106.476 40.2037C106.415 40.0837 106.354 39.9936 106.354 39.8436C106.354 39.7236 106.354 39.6036 106.354 39.4536C106.354 38.3135 106.354 37.1734 106.354 36.0333C106.354 35.7332 106.323 35.4332 106.262 35.1632C106.11 34.5031 105.714 34.1731 105.043 34.1131C104.738 34.0831 104.433 34.0831 104.128 34.1731C103.396 34.3831 102.908 34.9832 102.878 35.7332C102.878 35.8833 102.878 36.0633 102.878 36.2133C102.878 37.3234 102.878 38.4335 102.878 39.5136C102.878 39.6336 102.878 39.7536 102.847 39.9036C102.786 40.2937 102.39 40.5937 101.933 40.5637C101.506 40.5337 101.17 40.2037 101.14 39.7536C101.14 39.6936 101.14 39.6036 101.14 39.5436C101.14 37.5934 101.14 35.6432 101.14 33.693C101.14 33.543 101.14 33.393 101.201 33.213C101.323 32.853 101.628 32.6429 102.055 32.6729C102.451 32.6729 102.756 32.913 102.847 33.273C102.878 33.363 102.878 33.483 102.908 33.573C102.847 33.663 102.847 33.693 102.847 33.7531Z" fill="white"></path><path d="M72.539 31.9229C72.417 31.8329 72.295 31.8629 72.2036 31.8629C71.5937 31.8629 70.9534 31.8629 70.3436 31.8629C70.2521 31.8629 70.1606 31.8629 70.0692 31.8629C69.6118 31.8329 69.3069 31.4728 69.3069 31.0228C69.3069 30.6027 69.6118 30.2727 70.0692 30.2427C70.1606 30.2427 70.2826 30.2427 70.4046 30.2427C72.5085 30.2427 74.6429 30.2427 76.7468 30.2427C76.8687 30.2427 76.9602 30.2427 77.0822 30.2427C77.5091 30.2727 77.814 30.6327 77.814 31.0528C77.814 31.4728 77.5091 31.8029 77.0822 31.8629C76.9907 31.8629 76.8992 31.8629 76.8078 31.8629C76.1979 31.8629 75.5576 31.8629 74.9478 31.8629C74.8258 31.8629 74.7039 31.8629 74.5819 31.8629C74.5514 31.9529 74.5209 32.0129 74.5209 32.0729C74.5209 32.1929 74.5209 32.3129 74.5209 32.4329C74.5209 34.7431 74.5209 37.0534 74.5209 39.3636C74.5209 39.4836 74.5209 39.6036 74.5209 39.7236C74.4904 40.1736 74.2465 40.4437 73.8196 40.5637C73.5452 40.6237 73.2708 40.5937 73.0268 40.4437C72.8439 40.3237 72.6914 40.1436 72.6609 39.9036C72.6304 39.7536 72.6304 39.6036 72.6304 39.4236C72.6304 37.0534 72.6304 34.6831 72.6304 32.3129C72.5695 32.1929 72.5999 32.0429 72.539 31.9229Z" fill="white"></path><path d="M154.012 40.7138C153.402 40.7438 152.792 40.6238 152.213 40.4137C151.695 40.2337 151.268 39.9037 150.932 39.5137C150.902 39.4837 150.871 39.4236 150.841 39.3936C150.536 38.9136 150.78 38.3435 151.359 38.2535C151.603 38.2235 151.816 38.2535 151.999 38.4036C152.06 38.4636 152.121 38.4936 152.152 38.5536C152.304 38.6736 152.457 38.7936 152.609 38.9136C153.25 39.3636 153.981 39.4837 154.744 39.3336C154.805 39.3336 154.896 39.3036 154.957 39.2736C155.232 39.1536 155.414 38.9736 155.445 38.6736C155.475 38.3435 155.414 38.0735 155.11 37.8935C154.927 37.7735 154.744 37.6835 154.53 37.6235C154.195 37.5035 153.859 37.4135 153.524 37.3234C153.28 37.2334 153.006 37.1734 152.762 37.0834C152.518 36.9934 152.274 36.8734 152.03 36.7534C151.237 36.3034 150.932 35.5533 151.024 34.6832C151.085 34.0831 151.42 33.6031 151.908 33.2431C152.304 32.943 152.731 32.763 153.219 32.703C154.134 32.553 154.988 32.673 155.811 33.063C156.116 33.2131 156.36 33.3931 156.573 33.6331C156.726 33.7831 156.817 33.9931 156.817 34.2032C156.848 34.5932 156.573 34.8932 156.177 34.9232C155.902 34.9532 155.689 34.8632 155.506 34.6832C155.079 34.2332 154.561 34.0531 153.951 34.0231C153.707 34.0231 153.493 34.0231 153.25 34.0831C152.945 34.1731 152.731 34.3532 152.701 34.6532C152.64 34.9832 152.731 35.2833 153.036 35.4933C153.219 35.6133 153.402 35.7033 153.585 35.7633C153.92 35.8833 154.286 35.9733 154.622 36.0633C154.896 36.1533 155.14 36.2133 155.414 36.3334C155.689 36.4234 155.963 36.5734 156.207 36.7534C156.695 37.1134 156.97 37.6235 157 38.2235C157 38.4336 157 38.6136 156.97 38.8236C156.909 39.2436 156.726 39.5737 156.421 39.8737C155.994 40.3237 155.445 40.5638 154.835 40.7138C154.713 40.7438 154.591 40.7738 154.5 40.7738C154.347 40.7138 154.164 40.7138 154.012 40.7138Z" fill="white"></path><path d="M88.7908 40.7437C88.425 40.7137 88.0895 40.7137 87.7237 40.6237C86.7174 40.3837 85.9552 39.7836 85.4368 38.9136C85.0709 38.2835 84.8879 37.6234 84.8575 36.9034C84.827 36.3333 84.8575 35.7633 85.0709 35.2232C85.5283 33.8431 86.4735 32.973 87.9066 32.643C88.3945 32.523 88.8823 32.523 89.3702 32.583C89.6751 32.613 90.0105 32.643 90.3154 32.733C90.6203 32.823 90.9252 32.943 91.1692 33.153C91.3826 33.303 91.5351 33.5131 91.596 33.7831C91.657 34.0831 91.596 34.3231 91.4131 34.5632C91.3216 34.6832 91.1997 34.7432 91.0167 34.7732C90.7423 34.8032 90.4984 34.7432 90.2849 34.5632C89.858 34.2031 89.3702 34.1431 88.8518 34.1731C88.4859 34.1731 88.1505 34.2631 87.8456 34.4431C87.3273 34.7132 86.9614 35.1332 86.7784 35.6733C86.565 36.3333 86.5345 36.9934 86.7784 37.6534C87.0223 38.3435 87.4797 38.8236 88.181 39.0636C88.7299 39.2736 89.3092 39.2436 89.8885 39.0936C90.0715 39.0336 90.2544 38.9436 90.3764 38.8236C90.5593 38.6735 90.7423 38.6435 90.9862 38.6435C91.3826 38.6735 91.657 38.9136 91.718 39.3036C91.7485 39.5736 91.6875 39.8137 91.4741 39.9937C91.3216 40.1137 91.1692 40.2337 90.9862 40.3237C90.6203 40.5337 90.1934 40.6537 89.7666 40.7137C89.4617 40.6837 89.1263 40.7137 88.7908 40.7437Z" fill="white"></path><path d="M120.349 35.1033C120.349 36.5734 120.349 38.0435 120.349 39.4837C120.349 39.6037 120.349 39.6937 120.349 39.8137C120.319 40.2337 119.953 40.5638 119.526 40.5638C119.099 40.5938 118.733 40.3237 118.642 39.9037C118.611 39.7837 118.611 39.6637 118.611 39.5437C118.611 38.7636 118.611 37.9535 118.611 37.1734C118.611 35.0132 118.611 32.853 118.611 30.6928C118.611 30.5428 118.611 30.3928 118.642 30.2428C118.733 29.8228 119.13 29.5827 119.557 29.6127C119.984 29.6427 120.319 29.9428 120.349 30.3928C120.349 30.4828 120.349 30.6028 120.349 30.7228C120.349 32.193 120.349 33.6331 120.349 35.1033Z" fill="white"></path><path d="M139.772 36.6033C139.772 35.6132 139.772 34.6531 139.772 33.663C139.772 33.513 139.772 33.363 139.833 33.213C139.986 32.853 140.291 32.643 140.718 32.673C141.114 32.703 141.388 32.943 141.48 33.303C141.51 33.423 141.51 33.543 141.51 33.633C141.51 35.6132 141.51 37.5934 141.51 39.5736C141.51 39.6636 141.51 39.7836 141.48 39.8736C141.388 40.2937 141.023 40.5637 140.565 40.5337C140.138 40.5037 139.803 40.1737 139.772 39.7536C139.772 39.6636 139.772 39.5736 139.772 39.4836C139.772 38.5535 139.772 37.5634 139.772 36.6033Z" fill="white"></path><path d="M141.571 30.7827C141.571 30.9027 141.571 31.0227 141.541 31.1427C141.51 31.3828 141.388 31.5328 141.145 31.5928C140.809 31.6828 140.474 31.6828 140.138 31.5928C139.925 31.5328 139.803 31.4128 139.772 31.2027C139.711 30.9327 139.711 30.6627 139.772 30.3927C139.803 30.1827 139.925 30.0626 140.108 30.0326C140.474 29.9126 140.84 29.9126 141.175 30.0326C141.388 30.0926 141.51 30.2427 141.541 30.4527C141.571 30.5427 141.571 30.6627 141.571 30.7827Z" fill="white"></path><path d="M28.2655 40.4136L37.5654 45.6941C37.5958 45.6941 37.6263 45.7241 37.6263 45.7241L31.0402 33.603L28.2655 40.4136Z" fill="#025BAA"></path><path d="M37.5958 37.3234L31.0402 33.603L37.6568 45.7241C38.0227 45.9342 38.4496 46.0242 38.8765 45.9942V37.6234C38.4191 37.6534 37.9922 37.5334 37.5958 37.3234Z" fill="#2F7AFF"></path><path d="M25.8871 30.3328L18.2033 31.0829V33.3631C18.2033 34.2032 18.6607 34.9833 19.3925 35.4033L22.96 37.4435L26.1311 30.7228C26.1006 30.6928 26.1006 30.6928 26.0701 30.6628C26.0396 30.5128 25.9481 30.4228 25.8871 30.3328Z" fill="#025BAA"></path><path d="M19.3925 10.6509C18.6607 11.0709 18.2033 11.851 18.2033 12.6911V14.2812H25.7957L34.7601 1.92004L19.3925 10.6509Z" fill="#025BAA"></path><path d="M37.5958 0.299891L34.7601 1.92005L25.7957 14.2512H27.7776L37.5958 8.70069C37.9617 8.49067 38.3886 8.37066 38.8155 8.40066V-0.000137329C38.3886 -0.000137329 37.9617 0.0898712 37.5958 0.299891Z" fill="#2F7AFF"></path><path d="M58.147 10.6509L39.9742 0.299891C39.6083 0.0898712 39.2119 -0.000137329 38.8155 -0.000137329V8.37066C39.2119 8.37066 39.6083 8.49067 39.9742 8.67069L50.7681 14.8213C51.3474 15.1513 51.7438 15.6914 51.8963 16.2914L59.2447 12.001C59.0617 11.4309 58.6959 10.9509 58.147 10.6509Z" fill="#2567DF"></path><path d="M51.8963 16.3214C51.9268 16.5014 51.9573 16.6815 51.9573 16.8915V28.2626L59.3057 33.7531C59.3362 33.6331 59.3362 33.4831 59.3362 33.333V12.6911C59.3362 12.4511 59.3057 12.241 59.2447 12.031L51.8963 16.3214Z" fill="#2F7AFF"></path><path d="M51.9572 28.2625V29.1626C51.9572 29.2826 51.9572 29.4027 51.9268 29.5227L55.4028 36.9334L58.147 35.3732C58.7568 35.0132 59.1837 34.4131 59.3057 33.7531L51.9572 28.2625Z" fill="#6299FB"></path><path d="M50.5242 39.6937L39.9742 45.6942C39.6388 45.8743 39.3034 45.9943 38.9375 45.9943C38.907 45.9943 38.907 45.9943 38.8765 45.9943V37.6235C38.907 37.6235 38.907 37.6235 38.9375 37.6235C39.3034 37.5935 39.6388 37.5035 39.9742 37.3234L47.2616 33.183L50.5242 39.6937Z" fill="#6299FB"></path><path d="M30.0645 16.8318L24.2101 16.9518L22.5941 19.622L30.1255 19.472C30.3999 19.472 30.5828 19.262 30.5828 18.992L30.5523 17.3118C30.5523 17.0418 30.3389 16.8318 30.0645 16.8318Z" fill="#2F7AFF"></path><path d="M10.7939 17.2517C10.5195 17.2517 10.3366 17.4617 10.3366 17.7317L10.3671 19.4119C10.3671 19.6819 10.5805 19.8619 10.8549 19.8619L22.6856 19.6219L24.3016 16.9516L10.7939 17.2517Z" fill="#025BAA"></path><path d="M25.9177 28.5628C26.3445 28.5628 26.7104 28.2028 26.7104 27.7527L26.6799 26.5526C26.6799 26.1326 26.314 25.7726 25.8567 25.7726L18.6912 25.9226L16.9837 28.7128L25.9177 28.5628Z" fill="#2F7AFF"></path><path d="M14.8798 26.0426C14.4529 26.0426 14.087 26.4026 14.087 26.8527L14.1175 28.0528C14.1175 28.4728 14.4834 28.8329 14.9408 28.8329L17.1057 28.7729L18.8132 25.9826L14.8798 26.0426Z" fill="#025BAA"></path><path d="M10.2146 26.1326L5.33599 26.2226C4.90911 26.2226 4.54321 26.5826 4.54321 27.0327L4.5737 28.2328C4.5737 28.6528 4.9396 29.0128 5.39697 29.0128L10.2756 28.9228C10.7025 28.9228 11.0684 28.5628 11.0684 28.1128L11.0379 26.9126C11.0379 26.4926 10.672 26.1326 10.2146 26.1326Z" fill="#025BAA"></path><path d="M27.9301 24.0324C28.174 24.0324 28.3875 23.8224 28.3875 23.5523L28.357 21.8422C28.357 21.6022 28.1435 21.3921 27.8691 21.3921L21.4049 21.5421L19.7889 24.2124L27.9301 24.0324Z" fill="#2F7AFF"></path><path d="M0.45737 21.9623C0.21344 21.9623 0 22.1723 0 22.4423L0.0304914 24.1525C0.0304914 24.3925 0.243931 24.6025 0.518353 24.6025L19.8804 24.1825L21.4964 21.5123L0.45737 21.9623Z" fill="#025BAA"></path><path d="M44.06 27.9026L38.724 25.4724V30.4828H45.1272L44.06 27.9026Z" fill="#6299FB"></path><path d="M38.724 25.4124V15.4514L34.5772 25.1723L32.3513 30.4828H38.724V25.4724V25.4124Z" fill="#2F7AFF"></path><path d="M38.724 15.4514V25.4124V25.4724L41.9866 23.1021L38.724 15.4514Z" fill="#2567DF"></path><path d="M44.06 27.9026L38.724 25.4724L41.9866 23.1021L42.0171 23.1321L44.06 27.9026Z" fill="#2F7AFF"></path></svg>