<svg width="34" height="34" viewBox="0 0 34 34" fill="none" xmlns="http://www.w3.org/2000/svg">
<rect width="34" height="34" fill="#EB4D89"/>
<path d="M17.0112 27.7374C11.0822 27.7374 6.26172 22.9253 6.26172 17.0047C6.26172 11.0757 11.0822 6.26367 17.0112 6.26367C22.9401 6.26367 27.7606 11.0757 27.7606 16.9963C27.7606 22.9169 22.9401 27.7374 17.0112 27.7374ZM26.0726 18.466C25.7619 18.3652 23.2341 17.6178 20.3536 18.0713C21.5545 21.3633 22.0416 24.0506 22.1339 24.6049C24.1998 23.2192 25.6695 21.019 26.0726 18.466ZM20.5971 25.4531C20.4627 24.6469 19.9253 21.842 18.6404 18.4996C18.6236 18.508 18.5984 18.5164 18.5816 18.5164C13.4 20.3219 11.5441 23.9079 11.3761 24.2438C12.9297 25.4531 14.8865 26.1753 17.0112 26.1753C18.2793 26.1837 19.497 25.9234 20.5971 25.4531V25.4531ZM10.192 23.1437C10.4019 22.7909 12.9213 18.6255 17.6578 17.0887C17.7754 17.0467 17.9013 17.0131 18.0189 16.9795C17.7922 16.4588 17.5402 15.9382 17.2715 15.4259C12.6862 16.7948 8.23525 16.736 7.83214 16.7276C7.83214 16.82 7.82375 16.9123 7.82375 17.0047C7.83214 19.3646 8.72233 21.5144 10.192 23.1437V23.1437ZM8.0253 15.132C8.4368 15.1404 12.2159 15.1572 16.5157 14.015C14.9956 11.3109 13.3496 9.04341 13.1145 8.71589C10.5363 9.9252 8.62156 12.2934 8.0253 15.132ZM14.8613 8.09444C15.1132 8.43036 16.7844 10.6978 18.2877 13.4608C21.5545 12.2346 22.9317 10.3871 23.0997 10.1519C21.4789 8.71589 19.3458 7.8425 17.0112 7.8425C16.2721 7.8425 15.5499 7.93487 14.8613 8.09444V8.09444ZM24.1159 11.2101C23.9227 11.4704 22.3859 13.444 18.9931 14.8296C19.203 15.2663 19.413 15.7114 19.6061 16.1565C19.6733 16.3161 19.7405 16.4756 19.8077 16.6268C22.8646 16.2405 25.8962 16.8619 26.1986 16.9207C26.1734 14.7624 25.4008 12.7721 24.1159 11.2101V11.2101Z" fill="white"/>
</svg>
