<svg width="34" height="34" viewBox="0 0 34 34" fill="none" xmlns="http://www.w3.org/2000/svg">
<rect width="34" height="34" fill="#0A66C2"/>
<path d="M8.94727 10.8181C8.94727 10.2758 9.1377 9.82843 9.51857 9.47597C9.89943 9.1235 10.3946 8.94727 11.004 8.94727C11.6025 8.94727 12.0867 9.12078 12.4567 9.46784C12.8376 9.82573 13.028 10.2921 13.028 10.8669C13.028 11.3875 12.843 11.8213 12.473 12.1683C12.0922 12.5262 11.5916 12.7052 10.9713 12.7052H10.955C10.3565 12.7052 9.87224 12.5262 9.50224 12.1683C9.13225 11.8104 8.94727 11.3603 8.94727 10.8181ZM9.15946 25.0525V14.1855H12.7831V25.0525H9.15946ZM14.7909 25.0525H18.4146V18.9846C18.4146 18.605 18.4581 18.3122 18.5451 18.1061C18.6975 17.7374 18.9287 17.4256 19.2389 17.1707C19.549 16.9158 19.938 16.7884 20.4059 16.7884C21.6247 16.7884 22.2341 17.6072 22.2341 19.2449V25.0525H25.8578V18.8219C25.8578 17.2168 25.4769 15.9994 24.7152 15.1698C23.9535 14.3401 22.9469 13.9253 21.6955 13.9253C20.2917 13.9253 19.1981 14.5272 18.4146 15.731V15.7635H18.3982L18.4146 15.731V14.1855H14.7909C14.8126 14.5326 14.8235 15.6117 14.8235 17.4229C14.8235 19.234 14.8126 21.7772 14.7909 25.0525Z" fill="white"/>
</svg>
