<svg width="34" height="34" viewBox="0 0 34 34" fill="none" xmlns="http://www.w3.org/2000/svg">
<rect width="34" height="34" fill="#1DA1F2"/>
<path d="M20.1513 9.36667V9.36328H21.0303L21.3514 9.4277C21.5655 9.46952 21.7599 9.52432 21.9345 9.59212C22.1092 9.65993 22.2782 9.73904 22.4416 9.82944C22.605 9.91984 22.7531 10.012 22.8861 10.1057C23.0179 10.1984 23.1363 10.2967 23.2411 10.4007C23.3447 10.5058 23.5064 10.5329 23.7261 10.4821C23.9459 10.4312 24.1825 10.3606 24.436 10.2702C24.6895 10.1798 24.9403 10.0781 25.1881 9.96505C25.4361 9.85204 25.5871 9.78028 25.6411 9.74977C25.6941 9.71814 25.7223 9.70119 25.7256 9.69892L25.729 9.69383L25.7459 9.68536L25.7628 9.67688L25.7797 9.66841L25.7966 9.65993L25.8 9.65484L25.8051 9.65145L25.8102 9.64806L25.8135 9.64298L25.8304 9.63789L25.8473 9.6345L25.844 9.65993L25.8389 9.68536L25.8304 9.71078L25.822 9.73621L25.8135 9.75316L25.8051 9.77011L25.7966 9.79554C25.791 9.81249 25.7854 9.83509 25.7797 9.86335C25.7741 9.8916 25.7206 10.0046 25.6191 10.2024C25.5177 10.4001 25.391 10.6007 25.2389 10.8041C25.0867 11.0076 24.9504 11.1612 24.8298 11.2652C24.7081 11.3703 24.6276 11.4438 24.5881 11.4856C24.5487 11.5285 24.5008 11.5681 24.4445 11.6042L24.3599 11.6602L24.343 11.6687L24.3261 11.6771L24.3228 11.6822L24.3177 11.6856L24.3126 11.689L24.3092 11.6941L24.2923 11.7026L24.2754 11.711L24.2721 11.7161L24.267 11.7195L24.2619 11.7229L24.2585 11.728L24.2552 11.7331L24.2501 11.7365L24.245 11.7399L24.2416 11.7449H24.3261L24.7994 11.6432C25.1149 11.5754 25.4163 11.4935 25.7037 11.3974L26.16 11.2449L26.2107 11.2279L26.2361 11.2195L26.253 11.211L26.2699 11.2025L26.2868 11.194L26.3037 11.1856L26.3375 11.1805L26.3713 11.1771V11.211L26.3628 11.2144L26.3544 11.2195L26.351 11.2245L26.3459 11.2279L26.3409 11.2313L26.3375 11.2364L26.3341 11.2415L26.329 11.2449L26.324 11.2483L26.3206 11.2534L26.3172 11.2584L26.3121 11.2618L26.3037 11.2788L26.2952 11.2957L26.2902 11.2991C26.2879 11.3025 26.2164 11.3986 26.0755 11.5873C25.9347 11.7772 25.8586 11.8732 25.8473 11.8755C25.8361 11.8789 25.8203 11.8958 25.8 11.9263C25.7809 11.958 25.6614 12.084 25.4417 12.3043C25.222 12.5247 25.0068 12.7208 24.796 12.8926C24.5842 13.0655 24.4771 13.2779 24.4749 13.5299C24.4715 13.7808 24.4586 14.0645 24.436 14.3809C24.4135 14.6973 24.3712 15.0391 24.3092 15.4064C24.2473 15.7737 24.1515 16.189 24.0219 16.6524C23.8923 17.1157 23.7346 17.5677 23.5487 18.0085C23.3627 18.4492 23.1684 18.8447 22.9655 19.1951C22.7627 19.5454 22.5768 19.842 22.4078 20.085C22.2387 20.328 22.0669 20.5568 21.8923 20.7715C21.7176 20.9863 21.4968 21.2281 21.2297 21.497C20.9615 21.7649 20.8151 21.9118 20.7903 21.9378C20.7644 21.9627 20.6539 22.0553 20.459 22.2158C20.2652 22.3774 20.0567 22.539 19.8336 22.7006C19.6116 22.8611 19.4077 22.995 19.2217 23.1023C19.0358 23.2097 18.8116 23.3323 18.549 23.4702C18.2876 23.6092 18.0048 23.738 17.7006 23.8567C17.3963 23.9753 17.0752 24.0855 16.7371 24.1872C16.3991 24.2889 16.0723 24.368 15.7568 24.4245C15.4413 24.481 15.0836 24.5291 14.6835 24.5686L14.0835 24.628V24.6364H12.9849V24.628L12.8412 24.6195C12.7455 24.6138 12.6666 24.6082 12.6046 24.6025C12.5426 24.5969 12.3088 24.5658 11.9032 24.5093C11.4975 24.4528 11.1792 24.3963 10.9482 24.3398C10.7172 24.2833 10.3735 24.1759 9.91718 24.0177C9.46082 23.8595 9.07039 23.6996 8.74587 23.538C8.42248 23.3775 8.21966 23.2758 8.13739 23.2329C8.05626 23.191 7.96499 23.1391 7.86358 23.0769L7.71146 22.9837L7.7081 22.9786L7.70301 22.9752L7.69794 22.9718L7.69456 22.9667L7.67766 22.9583L7.66076 22.9498L7.65739 22.9447L7.65231 22.9413L7.64724 22.9379L7.64386 22.9328L7.64049 22.9277L7.6354 22.9244H7.62695V22.8905L7.64386 22.8938L7.66076 22.8989L7.73682 22.9074C7.78752 22.913 7.92556 22.9215 8.15092 22.9328C8.37629 22.9441 8.61572 22.9441 8.86925 22.9328C9.12278 22.9215 9.38196 22.8961 9.64674 22.8565C9.91155 22.817 10.2242 22.7492 10.5848 22.6531C10.9454 22.5571 11.2767 22.4429 11.5787 22.3107C11.8795 22.1774 12.0936 22.0779 12.2209 22.0124C12.3471 21.948 12.5398 21.8282 12.799 21.653L13.1877 21.3903L13.1911 21.3852L13.1962 21.3818L13.2013 21.3784L13.2046 21.3733L13.208 21.3682L13.2131 21.3648L13.2182 21.3614L13.2215 21.3564L13.2384 21.3513L13.2553 21.3479L13.2587 21.3309L13.2638 21.314L13.2689 21.3106L13.2722 21.3055L13.137 21.297C13.0469 21.2914 12.9595 21.2857 12.875 21.2801C12.7905 21.2744 12.6581 21.249 12.4778 21.2038C12.2976 21.1586 12.1032 21.0908 11.8947 21.0004C11.6863 20.91 11.4834 20.8026 11.2862 20.6783C11.0891 20.554 10.9465 20.4506 10.8586 20.3681C10.7719 20.2867 10.6592 20.1715 10.5206 20.0223C10.3831 19.872 10.2637 19.7177 10.1623 19.5595C10.0608 19.4013 9.96394 19.2188 9.87156 19.012L9.73125 18.7035L9.7228 18.678L9.71435 18.6526L9.70928 18.6357L9.7059 18.6187L9.73125 18.6221L9.75661 18.6272L9.94253 18.6526C10.0665 18.6696 10.2609 18.6752 10.5256 18.6696C10.7905 18.6639 10.9736 18.6526 11.075 18.6357C11.1764 18.6187 11.2384 18.6074 11.2609 18.6018L11.2947 18.5933L11.3369 18.5848L11.3792 18.5763L11.3826 18.5712L11.3877 18.5679L11.3927 18.5645L11.3961 18.5594L11.3623 18.5509L11.3285 18.5424L11.2947 18.534L11.2609 18.5255L11.2271 18.517C11.2046 18.5114 11.1651 18.5001 11.1088 18.4831C11.0524 18.4662 10.9003 18.404 10.6524 18.2966C10.4045 18.1893 10.2073 18.0847 10.0608 17.983C9.91399 17.881 9.77397 17.7695 9.64167 17.6491C9.50984 17.527 9.36506 17.37 9.20729 17.1778C9.04955 16.9857 8.9087 16.7625 8.78474 16.5083C8.6608 16.254 8.56784 16.011 8.50586 15.7794C8.44413 15.5491 8.4034 15.3136 8.38418 15.0759L8.35374 14.7199L8.37064 14.7233L8.38754 14.7284L8.40445 14.7369L8.42135 14.7453L8.43825 14.7538L8.45515 14.7623L8.71713 14.8809C8.8918 14.9601 9.1087 15.0279 9.36786 15.0844C9.62704 15.1409 9.78196 15.1719 9.83267 15.1776L9.90873 15.1861H10.0608L10.0575 15.181L10.0524 15.1776L10.0473 15.1742L10.0439 15.1691L10.0406 15.164L10.0355 15.1606L10.0304 15.1572L10.027 15.1522L10.0101 15.1437L9.99324 15.1352L9.98987 15.1301L9.98478 15.1267L9.97971 15.1233L9.97633 15.1183L9.95943 15.1098L9.94253 15.1013L9.93917 15.0962C9.93579 15.094 9.88733 15.0578 9.79379 14.9877C9.70139 14.9165 9.60449 14.8244 9.50308 14.7114C9.40166 14.5984 9.30025 14.4798 9.19884 14.3555C9.09724 14.2309 9.00675 14.0976 8.92841 13.9571C8.84954 13.8158 8.76615 13.6361 8.67826 13.418C8.5915 13.2011 8.52558 12.9824 8.4805 12.762C8.43544 12.5417 8.41009 12.3241 8.40445 12.1094C8.39882 11.8947 8.40445 11.711 8.42135 11.5585C8.43825 11.4059 8.47205 11.2336 8.52276 11.0415C8.57347 10.8494 8.64672 10.6459 8.74249 10.4312L8.88615 10.1091L8.8946 10.0837L8.90306 10.0583L8.90814 10.0549L8.91151 10.0498L8.91489 10.0447L8.91996 10.0413L8.92504 10.0447L8.92841 10.0498L8.93179 10.0549L8.93686 10.0583L8.94195 10.0617L8.94531 10.0668L8.94869 10.0718L8.95376 10.0752L8.96221 10.0922L8.97066 10.1091L8.97575 10.1125L8.97911 10.1176L9.20729 10.3719C9.35941 10.5414 9.5397 10.7307 9.74816 10.9398C9.95663 11.1488 10.0721 11.2573 10.0946 11.2652C10.1172 11.2743 10.1454 11.3002 10.1792 11.3432C10.213 11.385 10.3256 11.485 10.5172 11.6432C10.7088 11.8014 10.9595 11.9851 11.2693 12.1942C11.5792 12.4032 11.9229 12.6095 12.3004 12.8129C12.6779 13.0163 13.0835 13.1999 13.5173 13.3638C13.9511 13.5277 14.2554 13.635 14.43 13.6859C14.6047 13.7367 14.9033 13.8017 15.3258 13.8808C15.7484 13.9599 16.0667 14.0108 16.2808 14.0334C16.4949 14.056 16.6414 14.069 16.7202 14.0724L16.8386 14.0758L16.8352 14.0503L16.8301 14.0249L16.7963 13.813C16.7738 13.6718 16.7625 13.474 16.7625 13.2197C16.7625 12.9654 16.7822 12.731 16.8217 12.5162C16.8611 12.3015 16.9203 12.084 16.9991 11.8636C17.078 11.6432 17.1552 11.4664 17.2307 11.333C17.3073 11.2008 17.4076 11.0499 17.5315 10.8804C17.6555 10.7109 17.8161 10.5358 18.0132 10.3549C18.2104 10.1741 18.4358 10.0131 18.6893 9.87182C18.9429 9.73057 19.1767 9.6232 19.3908 9.54975C19.6049 9.4763 19.7851 9.42826 19.9316 9.40566C20.0781 9.38306 20.1513 9.37006 20.1513 9.36667V9.36667Z" fill="white"/>
</svg>
